# xmcd
#
# Track frame offsets:
#	150
#	12094
#	24166
#	42828
#	59618
#	77768
#	96454
#	108976
#	129464
#	142683
#	161908
#	175460
#
# Disc length: 2499 seconds
# Revision: 1
# Processed by: cddbd v1.5.2PL0 Copyright (c) Steve Scherf et al.
# Submitted via: dBpowerAMP V12.0
#
DISCID=9709c10c
DTITLE=David Johnson - Many Roads to Home
DYEAR=2002
DGENRE=Country
TTITLE0=All Creatures Great and Small
TTITLE1=Sailing with the Master
TTITLE2=What Falls from the Table
TTITLE3=At the Cross
TTITLE4=Walking Down the Road
TTITLE5=What a Friend
TTITLE6=The Fields Are White
TTITLE7=When They Ring Those Golden Bells
TTITLE8=When We All Get to Heaven
TTITLE9=Follow Me
TTITLE10=Don't Turn Back
TTITLE11=Jesus Loves Me
EXTD=
EXTT0=
EXTT1=
EXTT2=
EXTT3=
EXTT4=
EXTT5=
EXTT6=
EXTT7=
EXTT8=
EXTT9=
EXTT10=
EXTT11=
PLAYORDER=
